<svg width="15.000000" height="11.415283" viewBox="0 0 15 11.4153" fill="none" xmlns="http://www.w3.org/2000/svg" xmlns:xlink="http://www.w3.org/1999/xlink">
	<desc>
			Created with Pixso.
	</desc>
	<defs/>
	<path id="Vector" d="M13.16 0L1.83 0C0.82 0 0 0.82 0 1.83L0 9.58C0 10.59 0.82 11.41 1.83 11.41L13.16 11.41C14.17 11.41 15 10.59 15 9.58L15 1.83C15 0.82 14.17 0 13.16 0ZM14.16 9.58C14.16 10.13 13.71 10.57 13.16 10.57L1.83 10.57C1.28 10.57 0.83 10.13 0.83 9.58L0.83 1.83C0.83 1.28 1.28 0.84 1.83 0.84L13.16 0.84C13.71 0.84 14.16 1.28 14.16 1.83L14.16 9.58L14.16 9.58Z" fill="#999999" fill-opacity="1.000000" fill-rule="nonzero"/>
	<path id="Vector" d="M9.46 5.61L13.12 2.32C13.29 2.16 13.31 1.9 13.16 1.72C13 1.55 12.74 1.54 12.56 1.69L7.5 6.23L6.52 5.35C6.51 5.35 6.51 5.35 6.51 5.34C6.49 5.32 6.47 5.3 6.44 5.28L2.42 1.69C2.25 1.53 1.99 1.55 1.83 1.72C1.68 1.9 1.69 2.16 1.87 2.32L5.58 5.63L1.88 9.09C1.71 9.25 1.71 9.52 1.86 9.69C1.95 9.77 2.06 9.82 2.17 9.82C2.27 9.82 2.38 9.78 2.46 9.71L6.21 6.2L7.23 7.11C7.31 7.18 7.41 7.21 7.51 7.21C7.6 7.21 7.71 7.18 7.79 7.11L8.83 6.17L12.56 9.71C12.64 9.79 12.75 9.83 12.85 9.83C12.96 9.83 13.07 9.78 13.16 9.7C13.31 9.53 13.31 9.26 13.14 9.1L9.46 5.61Z" fill="#999999" fill-opacity="1.000000" fill-rule="nonzero"/>
</svg>
