<svg width="15.000000" height="14.999023" viewBox="0 0 15 14.999" fill="none" xmlns="http://www.w3.org/2000/svg" xmlns:xlink="http://www.w3.org/1999/xlink">
	<desc>
			Created with Pixso.
	</desc>
	<defs/>
	<path id="Vector" d="M14.6 11.57L11.57 9.54C11.18 9.29 10.66 9.37 10.38 9.73L9.5 10.87C9.38 11.02 9.17 11.06 9.01 10.97L8.84 10.88C8.28 10.58 7.59 10.2 6.19 8.8C4.79 7.4 4.41 6.71 4.11 6.15L4.02 5.98C3.93 5.82 3.97 5.61 4.12 5.5L5.25 4.61C5.62 4.33 5.7 3.81 5.45 3.42L3.42 0.39C3.16 0 2.64 -0.12 2.24 0.12L0.97 0.88C0.57 1.12 0.27 1.5 0.15 1.94C-0.31 3.61 0.04 6.48 4.27 10.72C7.64 14.09 10.15 14.99 11.87 14.99C12.27 15 12.66 14.94 13.05 14.84C13.49 14.72 13.87 14.42 14.1 14.02L14.87 12.76C15.11 12.35 15 11.83 14.6 11.57ZM14.44 12.5L13.68 13.77C13.51 14.06 13.24 14.27 12.91 14.36C11.38 14.78 8.69 14.43 4.62 10.37C0.56 6.3 0.21 3.61 0.63 2.08C0.72 1.75 0.93 1.48 1.22 1.31L2.49 0.55C2.67 0.45 2.89 0.5 3.01 0.67L4.11 2.32L5.03 3.7C5.14 3.87 5.1 4.09 4.95 4.22L3.81 5.1C3.46 5.37 3.37 5.84 3.58 6.22L3.67 6.39C3.99 6.97 4.39 7.7 5.83 9.15C7.29 10.6 8.01 11 8.6 11.32L8.76 11.41C9.14 11.62 9.62 11.52 9.89 11.18L10.77 10.04C10.9 9.88 11.12 9.85 11.29 9.96L14.32 11.98C14.49 12.1 14.54 12.32 14.44 12.5Z" fill="#999999" fill-opacity="1.000000" fill-rule="nonzero"/>
	<path id="Vector" d="M8.5 2.5C10.84 2.5 12.74 4.4 12.75 6.75C12.75 6.88 12.86 7 13 7C13.13 7 13.25 6.88 13.25 6.75C13.24 4.12 11.12 2 8.5 2C8.36 2 8.25 2.11 8.25 2.25C8.25 2.38 8.36 2.5 8.5 2.5Z" fill="#999999" fill-opacity="1.000000" fill-rule="nonzero"/>
	<path id="Vector" d="M8.5 4C10.01 4 11.24 5.23 11.25 6.75C11.25 6.88 11.36 7 11.5 7C11.63 7 11.75 6.88 11.75 6.75C11.74 4.95 10.29 3.5 8.5 3.5C8.36 3.5 8.25 3.61 8.25 3.75C8.25 3.88 8.36 4 8.5 4Z" fill="#999999" fill-opacity="1.000000" fill-rule="nonzero"/>
	<path id="Vector" d="M8.5 5.5C9.18 5.5 9.74 6.06 9.75 6.75C9.75 6.88 9.86 7 10 7C10.13 7 10.25 6.88 10.25 6.75C10.24 5.78 9.46 5 8.5 5C8.36 5 8.25 5.11 8.25 5.25C8.25 5.38 8.36 5.5 8.5 5.5Z" fill="#999999" fill-opacity="1.000000" fill-rule="nonzero"/>
</svg>
