<svg width="30.000000" height="26.468262" viewBox="0 0 30 26.4683" fill="none" xmlns="http://www.w3.org/2000/svg" xmlns:xlink="http://www.w3.org/1999/xlink">
	<desc>
			Created with Pixso.
	</desc>
	<defs/>
	<path id="Vector" d="M26.67 26.46L3.32 26.46C1.49 26.46 0 24.97 0 23.14L0 3.32C0 1.49 1.49 0 3.32 0L26.67 0C28.5 0 30 1.49 30 3.32L30 23.14C30 24.97 28.5 26.46 26.67 26.46ZM3.32 0.99C2.03 0.99 0.99 2.03 0.99 3.32L0.99 23.14C0.99 24.43 2.03 25.47 3.32 25.47L26.67 25.47C27.96 25.47 29 24.43 29 23.14L29 3.32C29 2.03 27.96 0.99 26.67 0.99L3.32 0.99Z" fill="#4985FF" fill-opacity="1.000000" fill-rule="nonzero"/>
</svg>
